<svg xmlns="http://www.w3.org/2000/svg" viewBox="0 0 298.12 607.1">
    <defs>
        <style>.cls-1{fill:#fff;}</style>
    </defs>
    <title>oss</title>
    <g id="Layer_2" data-name="Layer 2">
        <g id="Layer_1-2" data-name="Layer 1">
            <path class="cls-1" d="M273,493.1c-13,27.61-34.49,73.18-85,98a160.19,160.19,0,0,1-67,16c20.23-7.41,61.27-25.78,94-68,45.33-58.48,43.76-122.82,43-142a228.8,228.8,0,0,0-18-80h32V.1c8.32.33,16.65-.33,25,0v353C299.62,382.92,299.75,436.34,273,493.1Z"/>
            <path class="cls-1" d="M271.12,309.07H233c-6.12-7.88-16.41-18.78-32-26-46.71-21.59-98.12,10.07-111,18-36.88,22.71-56.57,57-67,84.38V607.1H0v-350H23V362.37A187.08,187.08,0,0,1,46,319.1c11.83-16.55,40.82-57.1,94-68,13-2.66,51.24-9.88,89,13A116.46,116.46,0,0,1,271.12,309.07Z"/>
        </g>
    </g>
</svg>